<svg width="17" height="20" viewBox="0 0 17 20" fill="none" xmlns="http://www.w3.org/2000/svg">
<path d="M16.1484 14.9258C14.8906 13.8594 14.168 12.3047 14.168 10.6562V8.33203C14.168 5.32812 11.8828 2.84375 8.96094 2.53125V0.625C8.96094 0.28125 8.67969 0 8.33594 0C7.99219 0 7.71094 0.28125 7.71094 0.625V2.53516C4.78516 2.84766 2.5 5.32812 2.5 8.33203V10.6562C2.5 12.3047 1.77734 13.8633 0.511719 14.9336C0.1875 15.2109 0 15.6133 0 16.043C0 16.8477 0.65625 17.5 1.45703 17.5H5.27344C5.5625 18.9258 6.82812 20 8.33594 20C9.84375 20 11.1094 18.9258 11.3984 17.5H15.2109C16.0156 17.5 16.668 16.8438 16.668 16.043C16.668 15.6133 16.4805 15.2109 16.1484 14.9258ZM15.207 16.25H10.832C10.4883 16.25 10.207 16.5312 10.207 16.875C10.207 17.0938 10.168 17.3047 10.1016 17.5C9.84375 18.2266 9.14844 18.75 8.33203 18.75C7.51562 18.75 6.82031 18.2266 6.5625 17.5C6.49219 17.3047 6.45703 17.0938 6.45703 16.875C6.45703 16.5312 6.17578 16.25 5.83203 16.25H1.45703C1.34375 16.25 1.25 16.1562 1.25 16.043C1.25 15.9609 1.29688 15.9062 1.32422 15.8828C2.86719 14.5781 3.75 12.6758 3.75 10.6562V8.33203C3.75 5.80469 5.80469 3.75 8.33203 3.75C10.8594 3.75 12.9141 5.80469 12.9141 8.33203V10.6562C12.9141 12.6719 13.7969 14.5781 15.3398 15.8828C15.3672 15.9062 15.4141 15.957 15.4141 16.043C15.418 16.1562 15.3203 16.25 15.207 16.25Z" fill="white"/>
<path d="M15.418 16.043C15.418 16.1563 15.3243 16.25 15.211 16.25H10.836C10.4922 16.25 10.211 16.5312 10.211 16.875C10.211 17.0938 10.1719 17.3047 10.1055 17.5C9.84772 18.2266 9.15241 18.75 8.336 18.75C7.51959 18.75 6.82428 18.2266 6.56647 17.5C6.49616 17.3047 6.461 17.0938 6.461 16.875C6.461 16.5312 6.17975 16.25 5.836 16.25H1.461C1.34772 16.25 1.25397 16.1563 1.25397 16.043C1.25397 15.9609 1.30084 15.9062 1.32819 15.8828C2.86725 14.5781 3.75006 12.6758 3.75006 10.6562V8.33203C3.75006 5.80469 5.80475 3.75 8.33209 3.75C10.8594 3.75 12.9141 5.80469 12.9141 8.33203V10.6562C12.9141 12.6719 13.7969 14.5781 15.3399 15.8828C15.3712 15.9062 15.418 15.957 15.418 16.043Z" fill="white"/>
</svg>
