<svg width="18" height="12" viewBox="0 0 18 12" fill="none" xmlns="http://www.w3.org/2000/svg">
<path d="M17.9372 5.77195C17.895 5.71219 16.9002 4.31666 15.3078 2.90004C13.5537 1.3428 11.3462 0 9.00154 0C6.6569 0 4.44936 1.3428 2.69528 2.90004C1.10289 4.31666 0.108092 5.71219 0.0659099 5.77195C-0.02197 5.89498 -0.02197 6.05668 0.0659099 6.17971C0.108092 6.23947 1.10289 7.635 2.69528 9.05163C4.44936 10.6089 6.6569 11.9517 9.00154 11.9517C10.1194 11.9517 11.2899 11.6423 12.4781 11.0342C13.4166 10.5526 14.3657 9.88824 15.3043 9.05163C16.8967 7.635 17.8915 6.23947 17.9336 6.17971C18.0215 6.05668 18.0215 5.89498 17.9372 5.77195ZM5.13482 5.97583C5.13482 3.84562 6.86781 2.10912 9.00154 2.10912C11.1353 2.10912 12.8682 3.84562 12.8682 5.97583C12.8682 8.10955 11.1353 9.84255 9.00154 9.84255C6.86781 9.84255 5.13482 8.10955 5.13482 5.97583Z" fill="#777777"/>
</svg>
