<svg width="20" height="14" viewBox="0 0 20 14" fill="none" xmlns="http://www.w3.org/2000/svg">
<path opacity="0.5" d="M18.9778 0.599609H1.02222C0.444444 0.599609 0 1.04554 0 1.62525V12.9073C0 13.487 0.444444 13.9329 1.02222 13.9329H18.9778C19.5556 13.9329 20 13.487 20 12.9073V1.62525C20 1.04554 19.5556 0.599609 18.9778 0.599609ZM5.51111 5.37107C5.51111 5.63863 5.28889 5.90619 4.97778 5.90619H2.22222C1.95556 5.90619 1.68889 5.68322 1.68889 5.37107V2.87386C1.68889 2.6063 1.91111 2.33874 2.22222 2.33874H4.97778C5.28889 2.33874 5.51111 2.56171 5.51111 2.87386V5.37107ZM17.0222 11.4361H6.35556V10.5H17.0222V11.4361ZM17.0222 8.5H6.35556V7.49295H17.0222V8.5Z" fill="white"/>
</svg>
