<svg width="18" height="19" viewBox="0 0 18 19" fill="none" xmlns="http://www.w3.org/2000/svg">
<path d="M16.4234 9.93435C16.4234 10.9854 16.9489 11.7738 17.8686 12.0365C17.6058 13.0876 17.2117 13.876 16.6861 14.6643C16.4234 14.5329 16.1606 14.5329 15.7664 14.5329C15.1095 14.5329 14.5839 14.7957 14.1898 15.1898C13.4015 15.9781 13.2701 16.7665 13.6642 17.8176C12.8759 18.3431 11.9562 18.7373 11.0365 19C10.6423 17.9489 9.9854 17.5548 8.93431 17.5548C7.88321 17.5548 7.09489 18.0803 6.83212 19C5.78102 18.7373 4.9927 18.3431 4.20438 17.8176C4.59854 16.8979 4.46715 15.9781 3.67883 15.1898C3.28467 14.7957 2.75912 14.5329 2.10219 14.5329C1.70803 14.5329 1.44526 14.5329 1.18248 14.6643C0.656934 14.0073 0.262774 13.0876 0 12.1679C1.05109 11.7738 1.44526 11.1168 1.44526 10.0657C1.44526 8.88325 1.05109 8.22632 0 7.83216C0.262774 6.78106 0.656934 5.99274 1.18248 5.20442C1.31387 5.33581 1.70803 5.33581 2.10219 5.33581C2.75912 5.33581 3.28467 5.07303 3.67883 4.67887C4.46715 3.89055 4.59854 3.10223 4.20438 2.05113C4.9927 1.52559 5.91241 1.13143 6.83212 0.868652C7.22628 2.05113 7.88321 2.44529 8.93431 2.44529C9.9854 2.44529 10.7737 1.91975 11.0365 1.00004C12.0876 1.26281 12.8759 1.65697 13.6642 2.18252C13.2701 3.10223 13.4015 4.02194 14.1898 4.81026C14.5839 5.20442 15.1095 5.46719 15.7664 5.46719C16.1606 5.46719 16.4234 5.46719 16.6861 5.33581C17.2117 6.12413 17.6058 7.04384 17.8686 7.96354C16.9489 8.22632 16.4234 8.88325 16.4234 9.93435ZM6.43796 12.5621C7.22628 13.3504 8.0146 13.6132 9.06569 13.6132C10.1168 13.6132 11.0365 13.219 11.6934 12.5621C12.4818 11.7738 12.7445 10.9854 12.7445 9.93435C12.7445 8.88325 12.3504 7.96354 11.6934 7.30661C10.9051 6.64967 9.9854 6.25551 9.06569 6.25551C8.14599 6.25551 7.09489 6.64967 6.43796 7.30661C5.64964 8.09493 5.25547 8.88325 5.25547 9.93435C5.25547 10.9854 5.64964 11.9052 6.43796 12.5621Z" fill="#777777"/>
</svg>
