<svg width="20" height="20" viewBox="0 0 20 20" fill="none" xmlns="http://www.w3.org/2000/svg">
<path d="M10 20C15.5228 20 20 15.5228 20 10C20 4.47715 15.5228 0 10 0C4.47715 0 0 4.47715 0 10C0 15.5228 4.47715 20 10 20Z" fill="white"/>
<path d="M13.75 13.75H10H6.25C6.25 13.4167 6.25 13.1667 6.25 13C6.33333 12.75 6.83333 12.4167 7.83333 12.0833C8 12 8.16667 12 8.41667 11.9167C8.75 11.8333 8.91667 11.75 8.91667 11.6667C8.91667 11.5833 9 11.4167 9 11.1667C9 11.0833 9 11.0833 9 11.0833C9 10.9167 8.91667 10.75 8.83333 10.5833C8.75 10.4167 8.58333 10.1667 8.58333 9.83333C8.58333 9.66667 8.5 9.58333 8.5 9.5C8.5 9.41667 8.33333 9.16667 8.33333 8.91667C8.33333 8.83333 8.25 8.66667 8.33333 8.58333C8.41667 8.5 8.41667 8.41667 8.41667 8.41667C8.41667 8.16667 8.33333 8 8.33333 7.75C8.33333 7.41667 8.41667 7.16667 8.75 6.75C9.08333 6.33333 9.5 6.25 10.0833 6.25C10.6667 6.25 11.1667 6.41667 11.4167 6.75C11.6667 7.08333 11.8333 7.41667 11.8333 7.75C11.8333 8 11.75 8.16667 11.75 8.41667C11.75 8.41667 11.75 8.5 11.8333 8.58333C11.9167 8.66667 11.8333 8.83333 11.8333 8.91667C11.75 9.16667 11.75 9.33333 11.6667 9.41667C11.5833 9.5 11.5833 9.58333 11.5833 9.75C11.5 10.1667 11.4167 10.4167 11.3333 10.5C11.25 10.5833 11.1667 10.8333 11.1667 11C11.1667 11.4167 11.1667 11.5833 11.25 11.6667C11.25 11.6667 11.5833 11.8333 12.1667 12H12.25C13.25 12.4167 13.75 12.6667 13.8333 12.9167L13.75 13.75Z" fill="#255888"/>
</svg>
