<svg width="21" height="24" viewBox="0 0 21 24" fill="none" xmlns="http://www.w3.org/2000/svg">
<g opacity="0.5">
<path d="M10.4121 23.5886L13.1322 22.6363L11.365 20.8691L10.4121 23.5886Z" fill="white"/>
<path d="M9.71058 21.0999L10.0907 19.4528C10.0916 19.4487 10.093 19.4449 10.0941 19.4409C10.0959 19.4341 10.0977 19.4273 10.0998 19.4207C10.102 19.414 10.1041 19.4083 10.1064 19.4023C10.1087 19.3962 10.1107 19.3908 10.1132 19.3852C10.1161 19.3785 10.1192 19.372 10.1225 19.3657C10.1249 19.3608 10.1273 19.3561 10.1298 19.3515C10.1336 19.3447 10.1376 19.3381 10.1417 19.3316C10.1444 19.3274 10.147 19.3233 10.1498 19.3192C10.1543 19.3127 10.159 19.3064 10.1639 19.3002C10.1669 19.2963 10.1699 19.2925 10.173 19.2888C10.1779 19.2828 10.1834 19.277 10.1888 19.2713C10.191 19.269 10.1929 19.2664 10.1952 19.2643L15.3176 14.1418C13.8876 11.2004 11.2432 9.44971 8.20902 9.44971C5.9841 9.44971 3.92858 10.4021 2.42111 12.1313C0.902931 13.8729 0.0474584 16.3004 0 18.9881C0.897554 19.4407 4.58303 21.1799 8.20902 21.1799C8.71059 21.1791 9.21178 21.1524 9.71058 21.0999Z" fill="white"/>
<path d="M11.8753 19.9099L17.4702 14.3145L19.6817 16.526L14.0868 22.1215L11.8753 19.9099Z" fill="white"/>
<path d="M8.20889 7.82012C10.3684 7.82012 12.1189 6.06953 12.1189 3.91006C12.1189 1.75059 10.3684 0 8.20889 0C6.04942 0 4.29883 1.75059 4.29883 3.91006C4.29883 6.06953 6.04942 7.82012 8.20889 7.82012Z" fill="white"/>
<path d="M21 14.5638C21 14.2545 20.9082 13.9522 20.7364 13.695C20.5645 13.4378 20.3202 13.2374 20.0344 13.119C19.7487 13.0007 19.4342 12.9697 19.1308 13.0301C18.8275 13.0904 18.5488 13.2394 18.3301 13.4581L20.5419 15.6699C20.6876 15.525 20.8031 15.3526 20.8818 15.1628C20.9604 14.9729 21.0006 14.7693 21 14.5638Z" fill="white"/>
</g>
</svg>
