<svg width="20" height="20" viewBox="0 0 20 20" fill="none" xmlns="http://www.w3.org/2000/svg">
<path d="M10 0C4.47328 0 0 4.47254 0 10V19.2188C0 19.6502 0.349766 20 0.78125 20H10C15.5267 20 20 15.5275 20 10C20 4.47328 15.5275 0 10 0Z" fill="white"/>
<path d="M9.76271 14.5182C9.15273 14.5182 8.65887 15.0266 8.65887 15.6366C8.65887 16.2321 9.13819 16.755 9.76271 16.755C10.3872 16.755 10.8811 16.2321 10.8811 15.6366C10.8811 15.0266 10.3728 14.5182 9.76271 14.5182Z" fill="#255888"/>
<path d="M9.86992 4.83832C7.6748 4.83832 6.66669 6.22177 6.66669 7.15562C6.66669 7.83011 7.20323 8.14138 7.64229 8.14138C8.5203 8.14138 8.1626 6.80977 9.82112 6.80977C10.6342 6.80977 11.2846 7.19025 11.2846 7.98574C11.2846 8.91965 10.374 9.45571 9.8374 9.93993C9.36589 10.3723 8.74799 11.0813 8.74799 12.5686C8.74799 13.4678 8.97558 13.7272 9.64228 13.7272C10.439 13.7272 10.6016 13.3468 10.6016 13.0182C10.6016 12.1189 10.6179 11.6001 11.5122 10.8565C11.9512 10.4934 13.3334 9.31739 13.3334 7.69179C13.3334 6.06618 11.9512 4.83832 9.86992 4.83832Z" fill="#255888"/>
</svg>
