<svg width="20" height="30" viewBox="0 0 20 30" fill="none" xmlns="http://www.w3.org/2000/svg">
<path d="M16.1119 3.03696H3.8891V11.3707H16.1119V3.03696Z" fill="white"/>
<path d="M12.2228 15.2598V24.1491H7.77814V15.2598C8.05651 15.3308 8.34416 15.3664 8.64109 15.3664H11.3598C11.6475 15.3664 11.9444 15.3308 12.2228 15.2598Z" fill="white"/>
<path d="M2.15295 1.45001V12.9548C2.15295 13.272 2.01839 13.5507 1.79733 13.7526C1.6051 13.9256 1.35521 14.0313 1.07648 14.0313C0.480569 14.0313 0 13.5507 0 12.9548V1.45001C0.00961138 0.854104 0.490181 0.373535 1.08609 0.373535C1.36482 0.373535 1.61471 0.47926 1.80694 0.652265C2.01839 0.854104 2.15295 1.13283 2.15295 1.45001Z" fill="white"/>
<path d="M20.001 1.45001V12.9548C20.001 13.5507 19.5205 14.0313 18.9246 14.0313C18.3287 14.0313 17.8481 13.5507 17.8481 12.9548V1.45001C17.8481 0.854104 18.3287 0.373535 18.9246 0.373535C19.5205 0.373535 20.001 0.854104 20.001 1.45001Z" fill="white"/>
<path d="M13.6759 26.2214C13.6759 26.4905 13.5701 26.7212 13.3971 26.8942C13.2241 27.0672 12.9838 27.1729 12.7243 27.1729H7.2939C7.15934 27.1729 7.03439 27.1441 6.91906 27.096C6.80372 27.048 6.698 26.9807 6.61149 26.8942C6.43849 26.7212 6.33276 26.4809 6.33276 26.2214C6.33276 25.6928 6.76528 25.2603 7.2939 25.2603H12.7243C13.253 25.2699 13.6759 25.6928 13.6759 26.2214Z" fill="white"/>
<path d="M6.9203 29.3034C6.80496 29.2554 6.69923 29.1881 6.61273 29.1016C6.70885 29.1881 6.80496 29.2554 6.9203 29.3034Z" fill="white"/>
<path d="M13.6486 12.3679C13.5717 13.0792 13.168 13.6943 12.5913 14.0499C12.2453 14.2614 11.8416 14.3863 11.4091 14.3863H9.25619C9.25619 14.3863 9.25619 14.3863 9.24657 14.3863H8.60261C8.1701 14.3863 7.76642 14.2614 7.42041 14.0499C6.84373 13.6943 6.44005 13.0888 6.36316 12.3775H13.6486V12.3679Z" fill="white"/>
</svg>
