<svg width="35" height="30" viewBox="0 0 35 30" fill="none" xmlns="http://www.w3.org/2000/svg">
<path d="M13.3438 23.9235C12.2161 25.4213 10.6411 27.1858 8.44385 29.2376L0.413319 16.2089C-0.150568 15.2446 -0.131124 14.0341 0.432763 13.0902L2.96053 8.80206C1.92998 10.7512 0.102209 15.4087 4.59386 17.9939C10.3883 21.3178 12.3911 22.4668 12.3911 22.4668L13.3438 23.9235Z" fill="#C2C2C2"/>
<path d="M34.5774 16.1884L28.2191 26.9191C27.3636 28.3553 25.8664 29.2376 24.2525 29.2376H18.7692L26.9164 15.9217C27.4025 15.1215 27.4025 14.1161 26.9164 13.3159L21.6469 5.31406C22.7164 3.89834 24.1747 2.25694 26.1969 0.328282C26.3136 0.225694 26.4302 0.102588 26.5469 0L34.5774 13.0492C35.1413 14.034 35.1413 15.2446 34.5774 16.1884Z" fill="#C2C2C2"/>
<path d="M20.1491 24.3748C20.3046 24.1081 22.7546 19.9635 17.6991 14.629C12.4491 9.08921 14.063 5.60121 14.413 5.0062C14.413 4.98569 14.4324 4.98569 14.4324 4.96517C14.4519 4.94465 14.4519 4.92413 14.4713 4.92413C14.4519 5.08827 13.9463 8.37109 18.9241 12.8439C25.0296 18.3221 20.3824 24.0876 20.1491 24.3748Z" fill="#C2C2C2"/>
<path d="M20.1501 24.3749C20.1501 24.3954 21.2001 21.3382 16.2418 17.0911C13.6168 14.8547 10.3307 10.9769 14.4335 4.98572C14.0835 5.60125 12.4501 9.06872 17.7001 14.6085C22.7556 19.9431 20.3057 24.1081 20.1501 24.3749Z" fill="#E0E0E0"/>
<path d="M26.5456 0.0203857C26.4289 0.122974 26.3123 0.246079 26.1956 0.348667C24.1734 2.2568 22.6956 3.91873 21.6456 5.33444C18.1262 9.99194 19.079 12.0437 19.1179 12.1258C19.0206 12.0847 16.7651 10.9768 17.5429 8.14536C18.4956 4.6984 23.5706 0.0203857 23.5706 0.0203857H26.5456Z" fill="#E0E0E0"/>
<path d="M22.0736 0.0203857H20.2847C20.2847 0.0203857 16.6875 3.28268 16.2403 6.87326C16.2403 6.87326 16.0069 8.7814 17.1153 10.033C17.1153 10.033 15.5986 5.92945 22.0736 0.0203857Z" fill="#E0E0E0"/>
<path d="M19.3912 0.0203857H17.6996C17.6996 0.0203857 15.3079 2.89285 15.3079 5.62169C15.3079 7.01689 15.8913 7.55035 15.8913 7.55035C15.8913 7.55035 15.3468 3.85718 19.3912 0.0203857Z" fill="#E0E0E0"/>
<path d="M17.4075 21.1329C16.4547 24.5799 11.3797 29.2579 11.3797 29.2579H8.46305L8.4436 29.2374C10.6603 27.1856 12.2353 25.4211 13.3436 23.9233C16.8241 19.2658 15.8908 17.2551 15.8519 17.1525C15.9491 17.1936 18.1852 18.3015 17.4075 21.1329Z" fill="#E0E0E0"/>
<path d="M8.4642 29.2566H8.42419L8.4442 29.2374L8.4642 29.2566Z" fill="#E0E0E0"/>
<path d="M12.8963 29.2581H14.6852C14.6852 29.2581 18.2824 25.9958 18.7296 22.4052C18.7296 22.4052 18.9629 20.4971 17.8546 19.2455C17.8546 19.2455 19.3713 23.349 12.8963 29.2581Z" fill="#E0E0E0"/>
<path d="M15.5795 29.2579H17.2712C17.2712 29.2579 19.6628 26.3855 19.6628 23.6566C19.6628 22.2614 19.0795 21.728 19.0795 21.728C19.0795 21.728 19.624 25.4211 15.5795 29.2579Z" fill="#E0E0E0"/>
<path d="M8.0929 15.942L12.4096 22.4666C12.4096 22.4666 10.4262 21.3177 4.61236 17.9938C0.101259 15.4086 1.92903 10.7511 2.95958 8.80192L3.42625 8.02225C3.44569 8.00173 3.44569 7.98122 3.46514 7.9607C3.48458 7.91966 3.50403 7.89915 3.50403 7.89915L6.79013 2.33888C7.64568 0.902643 9.14289 0.0203857 10.7568 0.0203857H16.2401L8.0929 13.3363C7.82068 13.7877 7.70401 14.3212 7.7429 14.8341C7.76234 15.2239 7.87901 15.6138 8.0929 15.942Z" fill="#C2C2C2"/>
<path d="M3.42736 8.02258L2.96069 8.80225C3.15514 8.43293 3.33014 8.16621 3.42736 8.02258Z" fill="#E0E0E0"/>
<path d="M8.0929 15.942L12.4096 22.4666C12.4096 22.4666 10.4262 21.3177 4.61236 17.9938C0.101259 15.4086 1.92903 10.7511 2.95958 8.80192L3.42625 8.02225C3.44569 8.00173 3.44569 7.98122 3.46514 7.9607C3.48458 7.91966 3.50403 7.89915 3.50403 7.89915L6.79013 2.33888C7.64568 0.902643 9.14289 0.0203857 10.7568 0.0203857H16.2401L8.0929 13.3363C7.82068 13.7877 7.70401 14.3212 7.7429 14.8341C7.76234 15.2239 7.87901 15.6138 8.0929 15.942Z" fill="#E0E0E0"/>
<path d="M26.9164 13.3367L22.6192 6.79156C22.6192 6.79156 24.6025 7.94055 30.4163 11.2644C34.9274 13.8496 33.0997 18.5071 32.0497 20.4768L31.583 21.2565C31.5636 21.277 31.5636 21.2975 31.5441 21.318C31.5247 21.3591 31.5052 21.3796 31.5052 21.3796L28.2191 26.9399C27.3636 28.3761 25.8664 29.2583 24.2525 29.2583H18.7692L26.9164 15.9424C27.1886 15.491 27.3052 14.9576 27.2664 14.4446C27.2469 14.0548 27.1302 13.665 26.9164 13.3367Z" fill="#E0E0E0"/>
</svg>
